<?xml version="1.0" encoding="UTF-8" standalone="no"?>
<!DOCTYPE svg PUBLIC "-//W3C//DTD SVG 1.1//EN" "http://www.w3.org/Graphics/SVG/1.1/DTD/svg11.dtd">
<svg version="1.1" xmlns="http://www.w3.org/2000/svg" xmlns:xlink="http://www.w3.org/1999/xlink" preserveAspectRatio="xMidYMid meet" viewBox="0 0 640 640" width="640" height="640"><defs><path d="M388.32 242.76L333.37 62.97C304.35 157.89 286.22 217.22 278.97 240.95C278.9 241.16 279.2 241.29 279.3 241.09C286.09 228.36 287.42 225.86 289.67 221.64C295.81 210.13 313.25 214.49 313.25 227.53C313.25 275.45 313.25 395.25 313.25 586.93L302.36 596.63L365.45 596.63L353.57 586.93C353.57 394.3 353.57 273.91 353.57 225.75C353.57 213.2 370.37 209.01 376.27 220.09C377.87 223.11 381.89 230.67 388.32 242.76Z" id="a1B4YPpQL"></path></defs><g><g><g><use xlink:href="#a1B4YPpQL" opacity="1" fill="#000000" fill-opacity="1"></use><g><use xlink:href="#a1B4YPpQL" opacity="1" fill-opacity="0" stroke="#041994" stroke-width="1" stroke-opacity="0"></use></g></g></g></g></svg>